<?xml version="1.0" encoding="UTF-8" standalone="no"?>
<!DOCTYPE svg PUBLIC "-//W3C//DTD SVG 1.1//EN" "http://www.w3.org/Graphics/SVG/1.1/DTD/svg11.dtd">
<svg width="100%" height="100%" viewBox="0 0 3508 2481" version="1.1" xmlns="http://www.w3.org/2000/svg" xmlns:xlink="http://www.w3.org/1999/xlink" xml:space="preserve" xmlns:serif="http://www.serif.com/" style="fill-rule:evenodd;clip-rule:evenodd;stroke-miterlimit:10;">
    <g id="レイヤー-1" serif:id="レイヤー 1" transform="matrix(4.16667,0,0,4.16667,0,0)">
        <g transform="matrix(0.655698,0,0,0.655698,474.981,225.095)">
            <rect x="92.22" y="97.891" width="322.628" height="322.628" style="fill:rgb(247,247,247);stroke:rgb(2,2,2);stroke-width:3.05px;"/>
        </g>
        <g transform="matrix(0.655698,0,0,0.655698,474.981,-66.4321)">
            <rect x="115.918" y="435.781" width="274.361" height="91.454" style="fill:rgb(181,181,182);"/>
        </g>
        <g transform="matrix(0.655698,0,0,0.655698,712.703,360.348)">
            <path d="M0,105.864L14.493,87.432C14.493,87.432 16.016,88.64 19.062,91.055C22.107,93.471 25.704,96.465 29.853,100.035C34.001,103.606 37.703,107.019 40.959,110.274C40.329,113.74 37.545,115.473 32.609,115.473L-42.534,115.473L-42.534,194.554C-42.534,195.185 -44.135,196.419 -47.338,198.257C-50.542,200.094 -54.664,201.013 -59.705,201.013L-62.855,201.013L-62.855,115.473L-130.91,115.473L-133.588,105.864L-62.855,105.864L-62.855,47.734L-117.992,47.734L-120.67,38.439L-62.855,38.439L-62.855,-17.8L-125.081,-17.8L-127.444,-26.779C-128.81,-25.939 -130.752,-25.519 -133.273,-25.519L-255.833,-25.519L-258.354,-35.129L-163.834,-35.129L-150.287,-52.615C-150.287,-52.615 -148.842,-51.459 -145.954,-49.149C-143.066,-46.839 -139.626,-43.976 -135.636,-40.563C-131.645,-37.15 -128.022,-33.868 -124.766,-30.718C-125.081,-29.562 -125.764,-28.46 -126.814,-27.409L-39.698,-27.409C-35.287,-37.596 -30.614,-48.991 -25.678,-61.594C-20.742,-74.197 -16.593,-85.382 -13.232,-95.149L20.637,-82.231C18.852,-77.925 14.651,-76.244 8.034,-77.19C3.098,-70.259 -2.862,-62.198 -9.846,-53.009C-16.83,-43.819 -23.84,-35.286 -30.876,-27.409L-7.719,-27.409L6.459,-45.211C6.459,-45.211 7.982,-44.029 11.027,-41.666C14.073,-39.303 17.644,-36.389 21.74,-32.923C25.835,-29.457 29.564,-26.149 32.925,-22.998C31.979,-19.532 29.091,-17.8 24.26,-17.8L-42.534,-17.8L-42.534,38.439L-13.548,38.439L0.315,20.323C0.315,20.323 1.838,21.505 4.884,23.868C7.929,26.231 11.474,29.145 15.517,32.611C19.561,36.077 23.21,39.384 26.466,42.535C25.521,46.001 22.842,47.734 18.432,47.734L-42.534,47.734L-42.534,105.864L0,105.864ZM-172.184,88.378L-160.999,76.09L-136.108,95.151C-138.314,98.093 -142.725,100.245 -149.341,101.61L-149.341,179.431C-149.551,180.377 -151.547,181.742 -155.328,183.527C-159.108,185.313 -162.679,186.206 -166.04,186.206L-169.033,186.206L-169.033,170.925L-220.074,170.925L-220.074,189.986C-220.074,190.931 -221.807,192.244 -225.272,193.925C-228.738,195.605 -232.466,196.445 -236.457,196.445L-239.608,196.445L-239.608,79.083L-218.341,88.378L-172.184,88.378ZM-220.074,161.631L-169.033,161.631L-169.033,97.672L-220.074,97.672L-220.074,161.631ZM-174.862,5.83L-161.944,-10.081C-161.944,-10.081 -160.631,-9.004 -158.005,-6.851C-155.38,-4.699 -152.229,-2.047 -148.554,1.104C-144.878,4.255 -141.464,7.301 -138.314,10.241C-139.259,13.707 -142.095,15.439 -146.821,15.439L-241.34,15.439L-243.861,5.83L-174.862,5.83ZM-174.862,46.789L-161.944,30.878C-161.944,30.878 -160.631,31.955 -158.005,34.107C-155.38,36.26 -152.229,38.912 -148.554,42.063C-144.878,45.214 -141.464,48.311 -138.314,51.357C-139.259,54.718 -142.095,56.398 -146.821,56.398L-241.34,56.398L-243.861,46.789L-174.862,46.789ZM-222.279,-91.053L-218.656,-93.258C-206.368,-89.477 -197.021,-85.014 -190.615,-79.868C-184.208,-74.722 -180.086,-69.575 -178.249,-64.429C-176.411,-59.283 -176.227,-54.794 -177.697,-50.961C-179.167,-47.127 -181.688,-44.659 -185.259,-43.556C-188.83,-42.454 -192.768,-43.425 -197.074,-46.471C-198.544,-54.032 -201.826,-61.962 -206.919,-70.259C-212.013,-78.555 -217.133,-85.487 -222.279,-91.053M-115.472,-91.368L-111.533,-93.573C-98.3,-87.797 -88.192,-81.653 -81.208,-75.142C-74.224,-68.631 -69.656,-62.382 -67.503,-56.395C-65.35,-50.409 -64.93,-45.342 -66.243,-41.194C-67.555,-37.045 -69.971,-34.446 -73.489,-33.396C-77.007,-32.345 -80.867,-33.501 -85.068,-36.861C-86.433,-42.637 -88.77,-48.834 -92.078,-55.45C-95.386,-62.067 -99.141,-68.526 -103.342,-74.827C-107.542,-81.128 -111.586,-86.642 -115.472,-91.368" style="fill:rgb(2,2,2);fill-rule:nonzero;"/>
        </g>
        <g transform="matrix(0.655698,0,0,0.655698,538.014,522.878)">
            <path d="M0,0L280.201,0L0,0" style="fill:none;fill-rule:nonzero;stroke:rgb(2,2,2);stroke-width:4.58px;"/>
        </g>
        <g transform="matrix(0.655698,0,0,0.655698,544.274,518.057)">
            <path d="M0,14.749L0.55,12.529L-9.386,7.352L0.55,2.174L0,0L-14.112,7.352L0,14.749Z" style="fill:rgb(2,2,2);fill-rule:nonzero;"/>
        </g>
        <g transform="matrix(0.655698,0,0,0.655698,544.274,527.698)">
            <path d="M0,-14.703L0.55,-12.529L-9.386,-7.351L0.55,-2.174L0,0L-14.112,-7.351L0,-14.703Z" style="fill:rgb(2,2,2);fill-rule:nonzero;"/>
        </g>
        <g transform="matrix(0.655698,0,0,0.655698,744.004,522.878)">
            <path d="M0,0L-100.014,0L0,0" style="fill:none;fill-rule:nonzero;stroke:rgb(2,2,2);stroke-width:4.58px;"/>
        </g>
        <g transform="matrix(0.655698,0,0,0.655698,737.722,527.698)">
            <path d="M0,-14.703L-0.55,-12.529L9.419,-7.351L-0.55,-2.174L0,0L14.145,-7.351L0,-14.703Z" style="fill:rgb(2,2,2);fill-rule:nonzero;"/>
        </g>
        <g transform="matrix(0.655698,0,0,0.655698,737.722,518.057)">
            <path d="M0,14.749L-0.55,12.529L9.419,7.352L-0.55,2.174L0,0L14.145,7.352L0,14.749Z" style="fill:rgb(2,2,2);fill-rule:nonzero;"/>
        </g>
        <g transform="matrix(4.01499e-17,0.655698,-0.655698,4.01499e-17,755.066,291.614)">
            <path d="M0,0L280.201,0L0,0" style="fill:none;fill-rule:nonzero;stroke:rgb(2,2,2);stroke-width:4.58px;"/>
        </g>
        <g transform="matrix(4.01499e-17,0.655698,-0.655698,4.01499e-17,759.886,297.874)">
            <path d="M0,14.749L0.55,12.529L-9.386,7.352L0.55,2.174L0,0L-14.112,7.352L0,14.749Z" style="fill:rgb(2,2,2);fill-rule:nonzero;"/>
        </g>
        <g transform="matrix(4.01499e-17,0.655698,-0.655698,4.01499e-17,750.246,297.874)">
            <path d="M0,-14.703L0.55,-12.529L-9.386,-7.351L0.55,-2.174L0,0L-14.112,-7.351L0,-14.703Z" style="fill:rgb(2,2,2);fill-rule:nonzero;"/>
        </g>
        <g transform="matrix(4.01499e-17,0.655698,-0.655698,4.01499e-17,755.066,497.604)">
            <path d="M0,0L-100.014,0L0,0" style="fill:none;fill-rule:nonzero;stroke:rgb(2,2,2);stroke-width:4.58px;"/>
        </g>
        <g transform="matrix(4.01499e-17,0.655698,-0.655698,4.01499e-17,750.246,491.322)">
            <path d="M0,-14.703L-0.55,-12.529L9.419,-7.351L-0.55,-2.174L0,0L14.145,-7.351L0,-14.703Z" style="fill:rgb(2,2,2);fill-rule:nonzero;"/>
        </g>
        <g transform="matrix(4.01499e-17,0.655698,-0.655698,4.01499e-17,759.886,491.322)">
            <path d="M0,14.749L-0.55,12.529L9.419,7.352L-0.55,2.174L0,0L14.145,7.352L0,14.749Z" style="fill:rgb(2,2,2);fill-rule:nonzero;"/>
        </g>
        <g transform="matrix(0.634147,0,0,0.634147,535.38,478.41)">
            <path d="M0,0L333.702,0" style="fill:none;fill-rule:nonzero;stroke:rgb(2,2,2);stroke-width:3.15px;"/>
        </g>
        <g transform="matrix(0.24,0,0,0.24,84.6553,443.344)">
            <text x="2097.72px" y="315.037px" style="font-family:'LucidaGrande', 'Lucida Grande', sans-serif;font-weight:500;font-size:66.667px;">advanceWidth</text>
        </g>
        <g transform="matrix(1.46958e-17,0.24,-0.24,1.46958e-17,836.824,-164.257)">
            <text x="2097.72px" y="315.037px" style="font-family:'LucidaGrande', 'Lucida Grande', sans-serif;font-weight:500;font-size:66.667px;">advanceHeight</text>
        </g>
        <g transform="matrix(1,0,0,1,-9.39059,76.8495)">
            <rect x="92.22" y="97.891" width="322.628" height="322.628" style="fill:rgb(247,247,247);stroke:rgb(2,2,2);stroke-width:2px;"/>
        </g>
        <g transform="matrix(1,0,0,1,-9.39059,-367.756)">
            <rect x="115.918" y="435.781" width="274.361" height="91.454" style="fill:rgb(181,181,182);"/>
        </g>
        <g transform="matrix(1,0,0,1,353.156,283.122)">
            <path d="M0,105.864L14.493,87.432C14.493,87.432 16.016,88.64 19.062,91.055C22.107,93.471 25.704,96.465 29.853,100.035C34.001,103.606 37.703,107.019 40.959,110.274C40.329,113.74 37.545,115.473 32.609,115.473L-42.534,115.473L-42.534,194.554C-42.534,195.185 -44.135,196.419 -47.338,198.257C-50.542,200.094 -54.664,201.013 -59.705,201.013L-62.855,201.013L-62.855,115.473L-130.91,115.473L-133.588,105.864L-62.855,105.864L-62.855,47.734L-117.992,47.734L-120.67,38.439L-62.855,38.439L-62.855,-17.8L-125.081,-17.8L-127.444,-26.779C-128.81,-25.939 -130.752,-25.519 -133.273,-25.519L-255.833,-25.519L-258.354,-35.129L-163.834,-35.129L-150.287,-52.615C-150.287,-52.615 -148.842,-51.459 -145.954,-49.149C-143.066,-46.839 -139.626,-43.976 -135.636,-40.563C-131.645,-37.15 -128.022,-33.868 -124.766,-30.718C-125.081,-29.562 -125.764,-28.46 -126.814,-27.409L-39.698,-27.409C-35.287,-37.596 -30.614,-48.991 -25.678,-61.594C-20.742,-74.197 -16.593,-85.382 -13.232,-95.149L20.637,-82.231C18.852,-77.925 14.651,-76.244 8.034,-77.19C3.098,-70.259 -2.862,-62.198 -9.846,-53.009C-16.83,-43.819 -23.84,-35.286 -30.876,-27.409L-7.719,-27.409L6.459,-45.211C6.459,-45.211 7.982,-44.029 11.027,-41.666C14.073,-39.303 17.644,-36.389 21.74,-32.923C25.835,-29.457 29.564,-26.149 32.925,-22.998C31.979,-19.532 29.091,-17.8 24.26,-17.8L-42.534,-17.8L-42.534,38.439L-13.548,38.439L0.315,20.323C0.315,20.323 1.838,21.505 4.884,23.868C7.929,26.231 11.474,29.145 15.517,32.611C19.561,36.077 23.21,39.384 26.466,42.535C25.521,46.001 22.842,47.734 18.432,47.734L-42.534,47.734L-42.534,105.864L0,105.864ZM-172.184,88.378L-160.999,76.09L-136.108,95.151C-138.314,98.093 -142.725,100.245 -149.341,101.61L-149.341,179.431C-149.551,180.377 -151.547,181.742 -155.328,183.527C-159.108,185.313 -162.679,186.206 -166.04,186.206L-169.033,186.206L-169.033,170.925L-220.074,170.925L-220.074,189.986C-220.074,190.931 -221.807,192.244 -225.272,193.925C-228.738,195.605 -232.466,196.445 -236.457,196.445L-239.608,196.445L-239.608,79.083L-218.341,88.378L-172.184,88.378ZM-220.074,161.631L-169.033,161.631L-169.033,97.672L-220.074,97.672L-220.074,161.631ZM-174.862,5.83L-161.944,-10.081C-161.944,-10.081 -160.631,-9.004 -158.005,-6.851C-155.38,-4.699 -152.229,-2.047 -148.554,1.104C-144.878,4.255 -141.464,7.301 -138.314,10.241C-139.259,13.707 -142.095,15.439 -146.821,15.439L-241.34,15.439L-243.861,5.83L-174.862,5.83ZM-174.862,46.789L-161.944,30.878C-161.944,30.878 -160.631,31.955 -158.005,34.107C-155.38,36.26 -152.229,38.912 -148.554,42.063C-144.878,45.214 -141.464,48.311 -138.314,51.357C-139.259,54.718 -142.095,56.398 -146.821,56.398L-241.34,56.398L-243.861,46.789L-174.862,46.789ZM-222.279,-91.053L-218.656,-93.258C-206.368,-89.477 -197.021,-85.014 -190.615,-79.868C-184.208,-74.722 -180.086,-69.575 -178.249,-64.429C-176.411,-59.283 -176.227,-54.794 -177.697,-50.961C-179.167,-47.127 -181.688,-44.659 -185.259,-43.556C-188.83,-42.454 -192.768,-43.425 -197.074,-46.471C-198.544,-54.032 -201.826,-61.962 -206.919,-70.259C-212.013,-78.555 -217.133,-85.487 -222.279,-91.053M-115.472,-91.368L-111.533,-93.573C-98.3,-87.797 -88.192,-81.653 -81.208,-75.142C-74.224,-68.631 -69.656,-62.382 -67.503,-56.395C-65.35,-50.409 -64.93,-45.342 -66.243,-41.194C-67.555,-37.045 -69.971,-34.446 -73.489,-33.396C-77.007,-32.345 -80.867,-33.501 -85.068,-36.861C-86.433,-42.637 -88.77,-48.834 -92.078,-55.45C-95.386,-62.067 -99.141,-68.526 -103.342,-74.827C-107.542,-81.128 -111.586,-86.642 -115.472,-91.368" style="fill:rgb(2,2,2);fill-rule:nonzero;"/>
        </g>
        <g transform="matrix(1,0,0,1,132.214,137.348)">
            <path d="M0,-12.098L0.202,-12.098L8.973,-32.263L20.567,-32.263L6.957,-6.049L20.567,20.165L8.167,20.165L-0.202,0.202L-0.403,0.202L-8.771,20.165L-20.769,20.165L-7.158,-6.049L-20.769,-32.263L-8.671,-32.263L0,-12.098Z" style="fill:rgb(2,2,2);fill-rule:nonzero;"/>
        </g>
        <g transform="matrix(1,0,0,1,-9.39059,-356.858)">
            <path d="M192.393,437.747L205.601,437.747L205.601,450.35L192.393,450.35L192.393,437.747ZM183.924,461.944L205.601,461.944L205.601,505.499L216.187,505.499L216.187,514.371L180.899,514.371L180.899,505.499L194.51,505.499L194.51,470.817L183.924,470.817L183.924,461.944Z" style="fill:rgb(2,2,2);fill-rule:nonzero;"/>
        </g>
        <g transform="matrix(1,0,0,1,252.242,107.606)">
            <path d="M0,23.693L-3.63,23.693C-8.537,23.693 -12.216,24.617 -14.67,26.465C-17.123,28.314 -18.35,30.919 -18.35,34.279C-18.35,36.833 -17.711,38.799 -16.434,40.177C-15.157,41.555 -13.443,42.244 -11.292,42.244C-7.797,42.244 -5.042,40.933 -3.025,38.312C-1.008,35.691 0,31.758 0,26.516L0,23.693ZM-9.478,-27.222L5.646,-27.222L-9.981,-9.578L-20.063,-9.578L-9.478,-27.222ZM-26.113,0C-23.626,-0.941 -20.618,-1.765 -17.089,-2.47C-13.561,-3.176 -10.62,-3.529 -8.268,-3.529C-1.143,-3.529 3.797,-2.1 6.553,0.756C9.309,3.612 10.687,8.839 10.687,16.434L10.687,49.906L0.604,49.906L0.403,42.849L0.201,42.849C-2.958,48.226 -7.696,50.915 -14.014,50.915C-18.451,50.915 -21.996,49.52 -24.651,46.731C-27.306,43.941 -28.633,40.026 -28.633,34.985C-28.633,29.003 -26.533,24.365 -22.332,21.071C-18.131,17.778 -11.897,16.131 -3.63,16.131L0,16.131L0,14.417C0,11.124 -0.622,8.822 -1.865,7.511C-3.109,6.2 -5.31,5.545 -8.469,5.545C-10.688,5.545 -13.561,5.931 -17.089,6.704C-20.618,7.478 -23.626,8.368 -26.113,9.376L-26.113,0Z" style="fill:rgb(2,2,2);fill-rule:nonzero;"/>
        </g>
        <g transform="matrix(1,0,0,1,301.417,148.036)">
            <path d="M0,-34.481C-2.823,-34.481 -5.209,-32.801 -7.158,-29.44C-9.107,-26.079 -10.082,-21.307 -10.082,-15.124L-10.082,9.477L-20.971,9.477L-20.971,-42.95L-10.586,-42.95L-10.385,-35.691L-10.183,-35.691C-8.771,-38.245 -6.856,-40.261 -4.436,-41.74C-2.017,-43.219 0.605,-43.958 3.428,-43.958C8.738,-43.958 12.552,-42.396 14.871,-39.27C17.19,-36.145 18.35,-30.65 18.35,-22.786L18.35,9.477L7.663,9.477L7.663,-20.87C7.663,-26.382 7.125,-30.028 6.049,-31.809C4.974,-33.59 2.958,-34.481 0,-34.481" style="fill:rgb(2,2,2);fill-rule:nonzero;"/>
        </g>
        <g transform="matrix(1,0,0,1,345.149,153.479)">
            <path d="M0,-22.18C0,-16.736 0.89,-12.653 2.671,-9.93C4.453,-7.208 6.822,-5.847 9.779,-5.847C12.804,-5.847 15.207,-7.141 16.988,-9.729C18.77,-12.317 19.66,-16.299 19.66,-21.676L19.66,-22.684C19.66,-28.196 18.752,-32.38 16.937,-35.237C15.123,-38.093 12.737,-39.521 9.779,-39.521C6.553,-39.521 4.117,-38.16 2.47,-35.438C0.823,-32.716 0,-28.297 0,-22.18M-6.654,14.922C-1.681,17.207 3.125,18.35 7.763,18.35C11.662,18.35 14.602,17.107 16.585,14.62C18.568,12.133 19.559,8.1 19.559,2.521L19.559,-4.033L19.357,-4.033C16.4,1.345 12.199,4.033 6.755,4.033C1.445,4.033 -2.823,1.799 -6.049,-2.671C-9.276,-7.141 -10.889,-13.644 -10.889,-22.18C-10.889,-40.328 -5.008,-49.402 6.755,-49.402C11.863,-49.402 16.165,-46.646 19.66,-41.135L19.861,-41.135L20.063,-48.394L30.448,-48.394L30.448,3.025C30.448,11.36 28.6,17.476 24.903,21.375C21.206,25.273 15.593,27.222 8.065,27.222C2.755,27.222 -2.151,26.382 -6.654,24.702L-6.654,14.922Z" style="fill:rgb(2,2,2);fill-rule:nonzero;"/>
        </g>
        <g transform="matrix(1,0,0,1,86.7398,524.363)">
            <path d="M0,0L280.201,0L0,0" style="fill:none;fill-rule:nonzero;stroke:rgb(2,2,2);stroke-width:3px;"/>
        </g>
        <g transform="matrix(1,0,0,1,96.2876,517.011)">
            <path d="M0,14.749L0.55,12.529L-9.386,7.352L0.55,2.174L0,0L-14.112,7.352L0,14.749Z" style="fill:rgb(2,2,2);fill-rule:nonzero;"/>
        </g>
        <g transform="matrix(1,0,0,1,96.2876,531.714)">
            <path d="M0,-14.703L0.55,-12.529L-9.386,-7.351L0.55,-2.174L0,0L-14.112,-7.351L0,-14.703Z" style="fill:rgb(2,2,2);fill-rule:nonzero;"/>
        </g>
        <g transform="matrix(1,0,0,1,400.894,524.363)">
            <path d="M0,0L-100.014,0L0,0" style="fill:none;fill-rule:nonzero;stroke:rgb(2,2,2);stroke-width:3px;"/>
        </g>
        <g transform="matrix(1,0,0,1,391.313,531.714)">
            <path d="M0,-14.703L-0.55,-12.529L9.419,-7.351L-0.55,-2.174L0,0L14.145,-7.351L0,-14.703Z" style="fill:rgb(2,2,2);fill-rule:nonzero;"/>
        </g>
        <g transform="matrix(1,0,0,1,391.313,517.011)">
            <path d="M0,14.749L-0.55,12.529L9.419,7.352L-0.55,2.174L0,0L14.145,7.352L0,14.749Z" style="fill:rgb(2,2,2);fill-rule:nonzero;"/>
        </g>
        <g transform="matrix(6.12323e-17,1,-1,6.12323e-17,417.765,178.296)">
            <path d="M0,0L280.201,0L0,0" style="fill:none;fill-rule:nonzero;stroke:rgb(2,2,2);stroke-width:3px;"/>
        </g>
        <g transform="matrix(6.12323e-17,1,-1,6.12323e-17,425.116,187.844)">
            <path d="M0,14.749L0.55,12.529L-9.386,7.352L0.55,2.174L0,0L-14.112,7.352L0,14.749Z" style="fill:rgb(2,2,2);fill-rule:nonzero;"/>
        </g>
        <g transform="matrix(6.12323e-17,1,-1,6.12323e-17,410.413,187.844)">
            <path d="M0,-14.703L0.55,-12.529L-9.386,-7.351L0.55,-2.174L0,0L-14.112,-7.351L0,-14.703Z" style="fill:rgb(2,2,2);fill-rule:nonzero;"/>
        </g>
        <g transform="matrix(6.12323e-17,1,-1,6.12323e-17,417.765,492.45)">
            <path d="M0,0L-100.014,0L0,0" style="fill:none;fill-rule:nonzero;stroke:rgb(2,2,2);stroke-width:3px;"/>
        </g>
        <g transform="matrix(6.12323e-17,1,-1,6.12323e-17,410.413,482.869)">
            <path d="M0,-14.703L-0.55,-12.529L9.419,-7.351L-0.55,-2.174L0,0L14.145,-7.351L0,-14.703Z" style="fill:rgb(2,2,2);fill-rule:nonzero;"/>
        </g>
        <g transform="matrix(6.12323e-17,1,-1,6.12323e-17,425.116,482.869)">
            <path d="M0,14.749L-0.55,12.529L9.419,7.352L-0.55,2.174L0,0L14.145,7.352L0,14.749Z" style="fill:rgb(2,2,2);fill-rule:nonzero;"/>
        </g>
        <g transform="matrix(1,0,0,1,110.401,53.8267)">
            <path d="M0,0L237.799,0L0,0" style="fill:none;fill-rule:nonzero;stroke:rgb(2,2,2);stroke-width:3px;"/>
        </g>
        <g transform="matrix(1,0,0,1,118.504,46.4752)">
            <path d="M0,14.749L0.467,12.53L-7.966,7.352L0.467,2.173L0,0L-11.977,7.352L0,14.749Z" style="fill:rgb(2,2,2);fill-rule:nonzero;"/>
        </g>
        <g transform="matrix(1,0,0,1,118.504,61.1776)">
            <path d="M0,-14.702L0.467,-12.529L-7.966,-7.351L0.467,-2.173L0,0L-11.977,-7.351L0,-14.702Z" style="fill:rgb(2,2,2);fill-rule:nonzero;"/>
        </g>
        <g transform="matrix(1,0,0,1,377.015,53.8267)">
            <path d="M0,0L-84.879,0L0,0" style="fill:none;fill-rule:nonzero;stroke:rgb(2,2,2);stroke-width:3px;"/>
        </g>
        <g transform="matrix(1,0,0,1,368.884,61.1776)">
            <path d="M0,-14.702L-0.467,-12.529L7.994,-7.351L-0.467,-2.173L0,0L12.004,-7.351L0,-14.702Z" style="fill:rgb(2,2,2);fill-rule:nonzero;"/>
        </g>
        <g transform="matrix(1,0,0,1,368.884,46.4752)">
            <path d="M0,14.749L-0.467,12.53L7.994,7.352L-0.467,2.173L0,0L12.004,7.352L0,14.749Z" style="fill:rgb(2,2,2);fill-rule:nonzero;"/>
        </g>
        <g transform="matrix(0.866025,0.5,-0.5,0.866025,525.702,163.984)">
            <path d="M0,0" style="fill:none;fill-rule:nonzero;stroke:rgb(2,2,2);stroke-width:3px;"/>
        </g>
        <g transform="matrix(0.24,0,0,0.24,0,23.6432)">
            <path d="M1827.51,328.682C1827.51,328.682 1984.52,308.762 2129.05,397.962C2286.55,495.166 2298.99,608.283 2298.99,608.283" style="fill:none;stroke:black;stroke-width:20.83px;stroke-linecap:round;stroke-linejoin:round;stroke-miterlimit:1.5;"/>
        </g>
        <g transform="matrix(0.258819,0.965926,-0.965926,0.258819,556.384,159.116)">
            <path d="M0,14.749L-0.467,12.53L7.994,7.352L-0.467,2.173L0,0L12.004,7.352L0,14.749Z" style="fill:rgb(2,2,2);fill-rule:nonzero;stroke:black;stroke-width:2px;stroke-linejoin:round;stroke-miterlimit:2;"/>
        </g>
        <g transform="matrix(1,0,0,1,394.446,148.374)">
            <path d="M0,-80.788L0,0L0,-80.788" style="fill:none;fill-rule:nonzero;stroke:rgb(2,2,2);stroke-width:3px;"/>
        </g>
        <g transform="matrix(1,0,0,1,390.736,66.4284)">
            <path d="M0,3.91L1.113,4.069L3.71,1.204L6.308,4.069L7.397,3.91L3.71,-0.159L0,3.91Z" style="fill:rgb(2,2,2);fill-rule:nonzero;"/>
        </g>
        <g transform="matrix(1,0,0,1,398.133,66.4284)">
            <path d="M0,3.91L-1.09,4.069L-3.687,1.204L-6.284,4.069L-7.375,3.91L-3.687,-0.159L0,3.91Z" style="fill:rgb(2,2,2);fill-rule:nonzero;"/>
        </g>
        <g transform="matrix(1,0,0,1,394.446,129.327)">
            <path d="M0,28.836L0,0L0,28.836" style="fill:none;fill-rule:nonzero;stroke:rgb(2,2,2);stroke-width:3px;"/>
        </g>
        <g transform="matrix(1,0,0,1,398.133,159.319)">
            <path d="M0,-3.919L-1.09,-4.078L-3.687,-1.203L-6.284,-4.078L-7.375,-3.919L-3.687,0.159L0,-3.919Z" style="fill:rgb(2,2,2);fill-rule:nonzero;"/>
        </g>
        <g transform="matrix(1,0,0,1,390.736,159.319)">
            <path d="M0,-3.919L1.113,-4.078L3.71,-1.203L6.308,-4.078L7.397,-3.919L3.71,0.159L0,-3.919Z" style="fill:rgb(2,2,2);fill-rule:nonzero;"/>
        </g>
        <g transform="matrix(1,0,0,1,54.8393,196.266)">
            <path d="M0,261.58L0,0L0,261.58" style="fill:none;fill-rule:nonzero;stroke:rgb(2,2,2);stroke-width:3px;"/>
        </g>
        <g transform="matrix(1,0,0,1,62.2367,461.592)">
            <path d="M0,-12.66L-2.219,-13.174L-7.397,-3.897L-12.576,-13.174L-14.749,-12.66L-7.397,0.514L0,-12.66Z" style="fill:rgb(2,2,2);fill-rule:nonzero;"/>
        </g>
        <g transform="matrix(1,0,0,1,47.4882,461.592)">
            <path d="M0,-12.66L2.173,-13.174L7.351,-3.897L12.529,-13.174L14.702,-12.66L7.351,0.514L0,-12.66Z" style="fill:rgb(2,2,2);fill-rule:nonzero;"/>
        </g>
        <g transform="matrix(1,0,0,1,54.8393,257.937)">
            <path d="M0,-93.367L0,0L0,-93.367" style="fill:none;fill-rule:nonzero;stroke:rgb(2,2,2);stroke-width:3px;"/>
        </g>
        <g transform="matrix(1,0,0,1,47.4882,160.824)">
            <path d="M0,12.69L2.173,13.204L7.351,3.898L12.529,13.204L14.702,12.69L7.351,-0.514L0,12.69Z" style="fill:rgb(2,2,2);fill-rule:nonzero;"/>
        </g>
        <g transform="matrix(1,0,0,1,62.2367,160.824)">
            <path d="M0,12.69L-2.219,13.204L-7.397,3.898L-12.576,13.204L-14.749,12.69L-7.397,-0.514L0,12.69Z" style="fill:rgb(2,2,2);fill-rule:nonzero;"/>
        </g>
        <g transform="matrix(1.06991,0,0,1.06991,48.4267,463.177)">
            <path d="M0,0L333.702,0" style="fill:none;fill-rule:nonzero;stroke:rgb(2,2,2);stroke-width:1.87px;"/>
        </g>
        <g transform="matrix(1.77581,0,0,1.77581,44.779,159.238)">
            <path d="M0,0L34.772,0" style="fill:none;fill-rule:nonzero;stroke:rgb(2,2,2);stroke-width:1.13px;"/>
        </g>
        <g transform="matrix(0.24,0,0,0.24,-340.624,-29.1994)">
            <text x="2097.72px" y="315.037px" style="font-family:'LucidaGrande', 'Lucida Grande', sans-serif;font-weight:500;font-size:66.667px;">pinyin</text>
            <text x="2295.8px" y="315.037px" style="font-family:'Symbol';font-size:66.667px;">_</text>
            <text x="2329.14px" y="315.037px" style="font-family:'LucidaGrande', 'Lucida Grande', sans-serif;font-weight:500;font-size:66.667px;">canvas</text>
            <text x="2546.78px" y="315.037px" style="font-family:'Symbol';font-size:66.667px;">.</text>
            <text x="2563.45px" y="315.037px" style="font-family:'LucidaGrande', 'Lucida Grande', sans-serif;font-weight:500;font-size:66.667px;">width</text>
        </g>
        <g transform="matrix(0.24,0,0,0.24,-378.895,442.237)">
            <text x="2097.72px" y="315.037px" style="font-family:'LucidaGrande', 'Lucida Grande', sans-serif;font-weight:500;font-size:66.667px;">expected</text>
            <text x="2393.04px" y="315.037px" style="font-family:'AlNile', 'Al Nile';font-size:66.667px;">_</text>
            <text x="2435.04px" y="315.037px" style="font-family:'LucidaGrande', 'Lucida Grande', sans-serif;font-weight:500;font-size:66.667px;">hanzi</text>
            <text x="2612.09px" y="315.037px" style="font-family:'AlNile', 'Al Nile';font-size:66.667px;">_</text>
            <text x="2654.09px" y="315.037px" style="font-family:'LucidaGrande', 'Lucida Grande', sans-serif;font-weight:500;font-size:66.667px;">canvas</text>
            <text x="2871.73px" y="315.037px" style="font-family:'AlNile', 'Al Nile';font-size:66.667px;">.</text>
            <text x="2898.73px" y="315.037px" style="font-family:'LucidaGrande', 'Lucida Grande', sans-serif;font-weight:500;font-size:66.667px;">width</text>
        </g>
        <g transform="matrix(1.46958e-17,0.24,-0.24,1.46958e-17,500.656,-291.373)">
            <text x="2097.72px" y="315.037px" style="font-family:'LucidaGrande', 'Lucida Grande', sans-serif;font-weight:500;font-size:66.667px;">expected</text>
            <text x="2393.04px" y="315.037px" style="font-family:'AlNile', 'Al Nile';font-size:66.667px;">_</text>
            <text x="2435.04px" y="315.037px" style="font-family:'LucidaGrande', 'Lucida Grande', sans-serif;font-weight:500;font-size:66.667px;">hanzi</text>
            <text x="2612.09px" y="315.037px" style="font-family:'AlNile', 'Al Nile';font-size:66.667px;">_</text>
            <text x="2654.09px" y="315.037px" style="font-family:'LucidaGrande', 'Lucida Grande', sans-serif;font-weight:500;font-size:66.667px;">canvas</text>
            <text x="2871.73px" y="315.037px" style="font-family:'AlNile', 'Al Nile';font-size:66.667px;">.</text>
            <text x="2898.73px" y="315.037px" style="font-family:'LucidaGrande', 'Lucida Grande', sans-serif;font-weight:500;font-size:66.667px;">height</text>
        </g>
        <g transform="matrix(1.46958e-17,0.24,-0.24,1.46958e-17,478.189,-461.627)">
            <text x="2097.72px" y="302.187px" style="font-family:'LucidaGrande', 'Lucida Grande', sans-serif;font-weight:500;font-size:50px;">pinyin</text>
            <text x="2246.28px" y="302.187px" style="font-family:'Symbol';font-size:50px;">_</text>
            <text x="2271.28px" y="302.187px" style="font-family:'LucidaGrande', 'Lucida Grande', sans-serif;font-weight:500;font-size:50px;">canvas</text>
            <text x="2434.51px" y="302.187px" style="font-family:'Symbol';font-size:50px;">.</text>
            <text x="2447.01px" y="302.187px" style="font-family:'LucidaGrande', 'Lucida Grande', sans-serif;font-weight:500;font-size:50px;">height</text>
        </g>
        <g transform="matrix(0.652414,0,0,0.652414,552.212,210.41)">
            <path d="M0,0L237.799,0L0,0" style="fill:none;fill-rule:nonzero;stroke:rgb(2,2,2);stroke-width:3.07px;"/>
        </g>
        <g transform="matrix(0.652414,0,0,0.652414,557.499,205.613)">
            <path d="M0,14.749L0.467,12.53L-7.966,7.352L0.467,2.173L0,0L-11.977,7.352L0,14.749Z" style="fill:rgb(2,2,2);fill-rule:nonzero;"/>
        </g>
        <g transform="matrix(0.652414,0,0,0.652414,557.499,215.205)">
            <path d="M0,-14.702L0.467,-12.529L-7.966,-7.351L0.467,-2.173L0,0L-11.977,-7.351L0,-14.702Z" style="fill:rgb(2,2,2);fill-rule:nonzero;"/>
        </g>
        <g transform="matrix(0.652414,0,0,0.652414,726.155,210.41)">
            <path d="M0,0L-84.879,0L0,0" style="fill:none;fill-rule:nonzero;stroke:rgb(2,2,2);stroke-width:3.07px;"/>
        </g>
        <g transform="matrix(0.652414,0,0,0.652414,720.85,215.205)">
            <path d="M0,-14.702L-0.467,-12.529L7.994,-7.351L-0.467,-2.173L0,0L12.004,-7.351L0,-14.702Z" style="fill:rgb(2,2,2);fill-rule:nonzero;"/>
        </g>
        <g transform="matrix(0.652414,0,0,0.652414,720.85,205.613)">
            <path d="M0,14.749L-0.467,12.53L7.994,7.352L-0.467,2.173L0,0L12.004,7.352L0,14.749Z" style="fill:rgb(2,2,2);fill-rule:nonzero;"/>
        </g>
        <g transform="matrix(0.652414,0,0,0.652414,737.527,272.093)">
            <path d="M0,-80.788L0,0L0,-80.788" style="fill:none;fill-rule:nonzero;stroke:rgb(2,2,2);stroke-width:1.53px;"/>
        </g>
        <g transform="matrix(0.652414,0,0,0.652414,735.107,218.631)">
            <path d="M0,3.91L1.113,4.069L3.71,1.204L6.308,4.069L7.397,3.91L3.71,-0.159L0,3.91Z" style="fill:rgb(2,2,2);fill-rule:nonzero;"/>
        </g>
        <g transform="matrix(0.652414,0,0,0.652414,739.933,218.631)">
            <path d="M0,3.91L-1.09,4.069L-3.687,1.204L-6.284,4.069L-7.375,3.91L-3.687,-0.159L0,3.91Z" style="fill:rgb(2,2,2);fill-rule:nonzero;"/>
        </g>
        <g transform="matrix(0.652414,0,0,0.652414,737.527,259.667)">
            <path d="M0,28.836L0,0L0,28.836" style="fill:none;fill-rule:nonzero;stroke:rgb(2,2,2);stroke-width:1.53px;"/>
        </g>
        <g transform="matrix(0.652414,0,0,0.652414,739.933,279.235)">
            <path d="M0,-3.919L-1.09,-4.078L-3.687,-1.203L-6.284,-4.078L-7.375,-3.919L-3.687,0.159L0,-3.919Z" style="fill:rgb(2,2,2);fill-rule:nonzero;"/>
        </g>
        <g transform="matrix(0.652414,0,0,0.652414,735.107,279.235)">
            <path d="M0,-3.919L1.113,-4.078L3.71,-1.203L6.308,-4.078L7.397,-3.919L3.71,0.159L0,-3.919Z" style="fill:rgb(2,2,2);fill-rule:nonzero;"/>
        </g>
        <g transform="matrix(0.24,6.72351e-32,3.56922e-33,0.24,128.407,126.514)">
            <text x="2097.72px" y="326.951px" style="font-family:'Tahoma', sans-serif;font-size:83.333px;">??</text>
        </g>
        <g transform="matrix(1.46958e-17,0.24,-0.24,1.46958e-17,819.046,-265.475)">
            <text x="2097.72px" y="326.951px" style="font-family:'Tahoma', sans-serif;font-size:83.333px;">??</text>
        </g>
        <g transform="matrix(1.46958e-17,0.24,-0.24,1.46958e-17,138.771,-281.892)">
            <text x="2097.72px" y="315.037px" style="font-family:'LucidaGrande', 'Lucida Grande', sans-serif;font-weight:500;font-size:66.667px;">pinyin</text>
            <text x="2295.8px" y="315.037px" style="font-family:'Symbol';font-size:66.667px;">_</text>
            <text x="2329.14px" y="315.037px" style="font-family:'LucidaGrande', 'Lucida Grande', sans-serif;font-weight:500;font-size:66.667px;">canvas</text>
            <text x="2546.78px" y="315.037px" style="font-family:'Symbol';font-size:66.667px;">.</text>
            <text x="2563.45px" y="315.037px" style="font-family:'LucidaGrande', 'Lucida Grande', sans-serif;font-weight:500;font-size:66.667px;">base</text>
            <text x="2713.35px" y="315.037px" style="font-family:'Symbol';font-size:66.667px;">_</text>
            <text x="2746.68px" y="315.037px" style="font-family:'LucidaGrande', 'Lucida Grande', sans-serif;font-weight:500;font-size:66.667px;">line</text>
        </g>
        <g transform="matrix(0.24,0,0,0.24,156.902,544.993)">
            <text x="0px" y="133.521px" style="font-family:'LucidaGrande-Bold', 'Lucida Grande', sans-serif;font-weight:600;font-size:150px;">set</text>
            <text x="272.314px" y="133.521px" style="font-family:'LucidaGrande-Bold', 'Lucida Grande', sans-serif;font-weight:600;font-size:150px;">value</text>
        </g>
        <g transform="matrix(0.24,0,0,0.24,475.337,544.993)">
            <text x="0px" y="133.521px" style="font-family:'LucidaGrande-Bold', 'Lucida Grande', sans-serif;font-weight:600;font-size:150px;">value</text>
            <text x="451.172px" y="133.521px" style="font-family:'LucidaGrande-Bold', 'Lucida Grande', sans-serif;font-weight:600;font-size:150px;">of</text>
            <text x="647.974px" y="133.521px" style="font-family:'LucidaGrande-Bold', 'Lucida Grande', sans-serif;font-weight:600;font-size:150px;">using</text>
            <text x="1116.36px" y="133.521px" style="font-family:'LucidaGrande-Bold', 'Lucida Grande', sans-serif;font-weight:600;font-size:150px;">font</text>
        </g>
        <g transform="matrix(0.24,0,0,0.24,432.14,80.2305)">
            <text x="23.153px" y="59.692px" style="font-family:'ArialMT', 'Arial', sans-serif;font-size:83.333px;">calculate pinyin size</text>
        </g>
    </g>
</svg>
