<?xml version="1.0" encoding="UTF-8" standalone="no"?>
<!DOCTYPE svg PUBLIC "-//W3C//DTD SVG 1.1//EN" "http://www.w3.org/Graphics/SVG/1.1/DTD/svg11.dtd">
<svg width="100%" height="100%" viewBox="0 0 3508 2481" version="1.1" xmlns="http://www.w3.org/2000/svg" xmlns:xlink="http://www.w3.org/1999/xlink" xml:space="preserve" xmlns:serif="http://www.serif.com/" style="fill-rule:evenodd;clip-rule:evenodd;stroke-miterlimit:10;">
    <g id="レイヤー-1" serif:id="レイヤー 1" transform="matrix(4.16667,0,0,4.16667,0,0)">
        <g transform="matrix(1,0,0,1,110.401,233.067)">
            <path d="M0,0L237.799,0L0,0" style="fill:none;fill-rule:nonzero;stroke:rgb(2,2,2);stroke-width:3px;"/>
        </g>
        <g transform="matrix(1,0,0,1,118.504,225.716)">
            <path d="M0,14.749L0.467,12.53L-7.966,7.352L0.467,2.173L0,0L-11.977,7.352L0,14.749Z" style="fill:rgb(2,2,2);fill-rule:nonzero;"/>
        </g>
        <g transform="matrix(1,0,0,1,118.504,240.418)">
            <path d="M0,-14.702L0.467,-12.529L-7.966,-7.351L0.467,-2.173L0,0L-11.977,-7.351L0,-14.702Z" style="fill:rgb(2,2,2);fill-rule:nonzero;"/>
        </g>
        <g transform="matrix(1,0,0,1,377.015,233.067)">
            <path d="M0,0L-84.879,0L0,0" style="fill:none;fill-rule:nonzero;stroke:rgb(2,2,2);stroke-width:3px;"/>
        </g>
        <g transform="matrix(1,0,0,1,368.884,240.418)">
            <path d="M0,-14.702L-0.467,-12.529L7.994,-7.351L-0.467,-2.173L0,0L12.004,-7.351L0,-14.702Z" style="fill:rgb(2,2,2);fill-rule:nonzero;"/>
        </g>
        <g transform="matrix(1,0,0,1,368.884,225.716)">
            <path d="M0,14.749L-0.467,12.53L7.994,7.352L-0.467,2.173L0,0L12.004,7.352L0,14.749Z" style="fill:rgb(2,2,2);fill-rule:nonzero;"/>
        </g>
        <g transform="matrix(0.24,0,0,0.24,-340.624,150.041)">
            <g transform="matrix(1,0,0,1,2097.72,315.037)">
                <text x="0px" y="0px" style="font-family:'LucidaGrande', 'Lucida Grande', sans-serif;font-weight:500;font-size:66.667px;">pinyin</text>
            </g>
            <g transform="matrix(1,0,0,1,2295.8,315.037)">
                <text x="0px" y="0px" style="font-family:'Symbol';font-size:66.667px;">_</text>
            </g>
            <g transform="matrix(1,0,0,1,2329.14,315.037)">
                <text x="0px" y="0px" style="font-family:'LucidaGrande', 'Lucida Grande', sans-serif;font-weight:500;font-size:66.667px;">canvas</text>
            </g>
            <g transform="matrix(1,0,0,1,2546.78,315.037)">
                <text x="0px" y="0px" style="font-family:'Symbol';font-size:66.667px;">.</text>
            </g>
            <g transform="matrix(1,0,0,1,2563.45,315.037)">
                <text x="0px" y="0px" style="font-family:'LucidaGrande', 'Lucida Grande', sans-serif;font-weight:500;font-size:66.667px;">width</text>
            </g>
        </g>
        <g transform="matrix(0.623209,0,0,1,573.043,237.623)">
            <path d="M0,0L237.799,0L0,0" style="fill:none;fill-rule:nonzero;stroke:rgb(2,2,2);stroke-width:1.73px;"/>
        </g>
        <g transform="matrix(0.44898,0,0,0.664647,583.606,232.686)">
            <path d="M0,14.749L-0.467,12.53L7.994,7.352L-0.467,2.173L0,0L12.004,7.352L0,14.749Z" style="fill:rgb(2,2,2);fill-rule:nonzero;"/>
        </g>
        <g transform="matrix(-0.44898,0,0,0.664647,578.855,232.691)">
            <path d="M0,14.749L-0.467,12.53L7.994,7.352L-0.467,2.173L0,0L12.004,7.352L0,14.749Z" style="fill:rgb(2,2,2);fill-rule:nonzero;"/>
        </g>
        <g transform="matrix(0.24,0,0,0.24,89.5184,156.168)">
            <g transform="matrix(1,0,0,1,2097.72,315.037)">
                <text x="0px" y="0px" style="font-family:'LucidaGrande', 'Lucida Grande', sans-serif;font-weight:500;font-size:66.667px;">pinyin</text>
            </g>
            <g transform="matrix(1,0,0,1,2295.8,315.037)">
                <text x="0px" y="0px" style="font-family:'Symbol';font-size:66.667px;">_</text>
            </g>
            <g transform="matrix(1,0,0,1,2329.14,315.037)">
                <text x="0px" y="0px" style="font-family:'LucidaGrande', 'Lucida Grande', sans-serif;font-weight:500;font-size:66.667px;">canvas</text>
            </g>
            <g transform="matrix(1,0,0,1,2546.78,315.037)">
                <text x="0px" y="0px" style="font-family:'Symbol';font-size:66.667px;">.</text>
            </g>
            <g transform="matrix(1,0,0,1,2563.45,315.037)">
                <text x="0px" y="0px" style="font-family:'LucidaGrande', 'Lucida Grande', sans-serif;font-weight:500;font-size:66.667px;">tracking</text>
            </g>
        </g>
        <g transform="matrix(1,0,0,1,-9.39059,-188.523)">
            <rect x="115.918" y="435.781" width="274.361" height="91.454" style="fill:rgb(181,181,182);"/>
        </g>
        <g transform="matrix(1,0,0,1,132.214,316.581)">
            <path d="M0,-12.098L0.202,-12.098L8.973,-32.263L20.567,-32.263L6.957,-6.049L20.567,20.165L8.167,20.165L-0.202,0.202L-0.403,0.202L-8.771,20.165L-20.769,20.165L-7.158,-6.049L-20.769,-32.263L-8.671,-32.263L0,-12.098Z" style="fill:rgb(2,2,2);fill-rule:nonzero;"/>
        </g>
        <g transform="matrix(1,0,0,1,-9.39059,-177.625)">
            <path d="M192.393,437.747L205.601,437.747L205.601,450.35L192.393,450.35L192.393,437.747ZM183.924,461.944L205.601,461.944L205.601,505.499L216.187,505.499L216.187,514.371L180.899,514.371L180.899,505.499L194.51,505.499L194.51,470.817L183.924,470.817L183.924,461.944Z" style="fill:rgb(2,2,2);fill-rule:nonzero;"/>
        </g>
        <g transform="matrix(1,0,0,1,252.242,286.839)">
            <path d="M0,23.693L-3.63,23.693C-8.537,23.693 -12.216,24.617 -14.67,26.465C-17.123,28.314 -18.35,30.919 -18.35,34.279C-18.35,36.833 -17.711,38.799 -16.434,40.177C-15.157,41.555 -13.443,42.244 -11.292,42.244C-7.797,42.244 -5.042,40.933 -3.025,38.312C-1.008,35.691 0,31.758 0,26.516L0,23.693ZM-9.478,-27.222L5.646,-27.222L-9.981,-9.578L-20.063,-9.578L-9.478,-27.222ZM-26.113,0C-23.626,-0.941 -20.618,-1.765 -17.089,-2.47C-13.561,-3.176 -10.62,-3.529 -8.268,-3.529C-1.143,-3.529 3.797,-2.1 6.553,0.756C9.309,3.612 10.687,8.839 10.687,16.434L10.687,49.906L0.604,49.906L0.403,42.849L0.201,42.849C-2.958,48.226 -7.696,50.915 -14.014,50.915C-18.451,50.915 -21.996,49.52 -24.651,46.731C-27.306,43.941 -28.633,40.026 -28.633,34.985C-28.633,29.003 -26.533,24.365 -22.332,21.071C-18.131,17.778 -11.897,16.131 -3.63,16.131L0,16.131L0,14.417C0,11.124 -0.622,8.822 -1.865,7.511C-3.109,6.2 -5.31,5.545 -8.469,5.545C-10.688,5.545 -13.561,5.931 -17.089,6.704C-20.618,7.478 -23.626,8.368 -26.113,9.376L-26.113,0Z" style="fill:rgb(2,2,2);fill-rule:nonzero;"/>
        </g>
        <g transform="matrix(1,0,0,1,301.417,327.269)">
            <path d="M0,-34.481C-2.823,-34.481 -5.209,-32.801 -7.158,-29.44C-9.107,-26.079 -10.082,-21.307 -10.082,-15.124L-10.082,9.477L-20.971,9.477L-20.971,-42.95L-10.586,-42.95L-10.385,-35.691L-10.183,-35.691C-8.771,-38.245 -6.856,-40.261 -4.436,-41.74C-2.017,-43.219 0.605,-43.958 3.428,-43.958C8.738,-43.958 12.552,-42.396 14.871,-39.27C17.19,-36.145 18.35,-30.65 18.35,-22.786L18.35,9.477L7.663,9.477L7.663,-20.87C7.663,-26.382 7.125,-30.028 6.049,-31.809C4.974,-33.59 2.958,-34.481 0,-34.481" style="fill:rgb(2,2,2);fill-rule:nonzero;"/>
        </g>
        <g transform="matrix(1,0,0,1,345.149,332.712)">
            <path d="M0,-22.18C0,-16.736 0.89,-12.653 2.671,-9.93C4.453,-7.208 6.822,-5.847 9.779,-5.847C12.804,-5.847 15.207,-7.141 16.988,-9.729C18.77,-12.317 19.66,-16.299 19.66,-21.676L19.66,-22.684C19.66,-28.196 18.752,-32.38 16.937,-35.237C15.123,-38.093 12.737,-39.521 9.779,-39.521C6.553,-39.521 4.117,-38.16 2.47,-35.438C0.823,-32.716 0,-28.297 0,-22.18M-6.654,14.922C-1.681,17.207 3.125,18.35 7.763,18.35C11.662,18.35 14.602,17.107 16.585,14.62C18.568,12.133 19.559,8.1 19.559,2.521L19.559,-4.033L19.357,-4.033C16.4,1.345 12.199,4.033 6.755,4.033C1.445,4.033 -2.823,1.799 -6.049,-2.671C-9.276,-7.141 -10.889,-13.644 -10.889,-22.18C-10.889,-40.328 -5.008,-49.402 6.755,-49.402C11.863,-49.402 16.165,-46.646 19.66,-41.135L19.861,-41.135L20.063,-48.394L30.448,-48.394L30.448,3.025C30.448,11.36 28.6,17.476 24.903,21.375C21.206,25.273 15.593,27.222 8.065,27.222C2.755,27.222 -2.151,26.382 -6.654,24.702L-6.654,14.922Z" style="fill:rgb(2,2,2);fill-rule:nonzero;"/>
        </g>
        <g transform="matrix(1,0,0,1,331.087,-188.523)">
            <rect x="115.918" y="435.781" width="274.361" height="91.454" style="fill:rgb(181,181,182);"/>
        </g>
        <g transform="matrix(1,0,0,1,562.231,286.839)">
            <path d="M0,23.693L-3.63,23.693C-8.537,23.693 -12.216,24.617 -14.67,26.465C-17.123,28.314 -18.35,30.919 -18.35,34.279C-18.35,36.833 -17.711,38.799 -16.434,40.177C-15.157,41.555 -13.443,42.244 -11.292,42.244C-7.797,42.244 -5.042,40.933 -3.025,38.312C-1.008,35.691 0,31.758 0,26.516L0,23.693ZM-9.478,-27.222L5.646,-27.222L-9.981,-9.578L-20.063,-9.578L-9.478,-27.222ZM-26.113,0C-23.626,-0.941 -20.618,-1.765 -17.089,-2.47C-13.561,-3.176 -10.62,-3.529 -8.268,-3.529C-1.143,-3.529 3.797,-2.1 6.553,0.756C9.309,3.612 10.687,8.839 10.687,16.434L10.687,49.906L0.604,49.906L0.403,42.849L0.201,42.849C-2.958,48.226 -7.696,50.915 -14.014,50.915C-18.451,50.915 -21.996,49.52 -24.651,46.731C-27.306,43.941 -28.633,40.026 -28.633,34.985C-28.633,29.003 -26.533,24.365 -22.332,21.071C-18.131,17.778 -11.897,16.131 -3.63,16.131L0,16.131L0,14.417C0,11.124 -0.622,8.822 -1.865,7.511C-3.109,6.2 -5.31,5.545 -8.469,5.545C-10.688,5.545 -13.561,5.931 -17.089,6.704C-20.618,7.478 -23.626,8.368 -26.113,9.376L-26.113,0Z" style="fill:rgb(2,2,2);fill-rule:nonzero;"/>
        </g>
        <g transform="matrix(1,0,0,1,611.406,327.269)">
            <path d="M0,-34.481C-2.823,-34.481 -5.209,-32.801 -7.158,-29.44C-9.107,-26.079 -10.082,-21.307 -10.082,-15.124L-10.082,9.477L-20.971,9.477L-20.971,-42.95L-10.586,-42.95L-10.385,-35.691L-10.183,-35.691C-8.771,-38.245 -6.856,-40.261 -4.436,-41.74C-2.017,-43.219 0.605,-43.958 3.428,-43.958C8.738,-43.958 12.552,-42.396 14.871,-39.27C17.19,-36.145 18.35,-30.65 18.35,-22.786L18.35,9.477L7.663,9.477L7.663,-20.87C7.663,-26.382 7.125,-30.028 6.049,-31.809C4.974,-33.59 2.958,-34.481 0,-34.481" style="fill:rgb(2,2,2);fill-rule:nonzero;"/>
        </g>
        <g transform="matrix(0.196558,0,0,0.196558,412.909,183.676)">
            <text x="0px" y="90.374px" style="font-family:'LucidaGrande', 'Lucida Grande', sans-serif;font-weight:500;font-size:117.217px;">Set</text>
            <text x="204.864px" y="90.374px" style="font-family:'LucidaGrande', 'Lucida Grande', sans-serif;font-weight:500;font-size:117.217px;">for</text>
            <text x="400.513px" y="90.374px" style="font-family:'LucidaGrande', 'Lucida Grande', sans-serif;font-weight:500;font-size:117.217px;">upper</text>
            <text x="766.665px" y="90.374px" style="font-family:'LucidaGrande', 'Lucida Grande', sans-serif;font-weight:500;font-size:117.217px;">limit</text>
            <text x="1054.18px" y="90.374px" style="font-family:'LucidaGrande', 'Lucida Grande', sans-serif;font-weight:500;font-size:117.217px;">of</text>
            <text x="1201.86px" y="90.374px" style="font-family:'LucidaGrande', 'Lucida Grande', sans-serif;font-weight:500;font-size:117.217px;">character</text>
            <text x="1761.81px" y="90.374px" style="font-family:'LucidaGrande', 'Lucida Grande', sans-serif;font-weight:500;font-size:117.217px;">gap</text>
        </g>
        <g transform="matrix(1.44115e-17,0.235357,-0.235357,1.44115e-17,573.496,233.191)">
            <path d="M0,0L237.799,0L0,0" style="fill:none;fill-rule:nonzero;stroke:rgb(2,2,2);stroke-width:7.14px;"/>
        </g>
        <g transform="matrix(1.44115e-17,0.235357,-0.235357,1.44115e-17,588.879,233.191)">
            <path d="M0,0L237.799,0L0,0" style="fill:none;fill-rule:nonzero;stroke:rgb(2,2,2);stroke-width:7.14px;"/>
        </g>
    </g>
</svg>
