<?xml version="1.0" encoding="UTF-8" standalone="no"?>
<!DOCTYPE svg PUBLIC "-//W3C//DTD SVG 1.1//EN" "http://www.w3.org/Graphics/SVG/1.1/DTD/svg11.dtd">
<svg width="100%" height="100%" viewBox="0 0 3508 2481" version="1.1" xmlns="http://www.w3.org/2000/svg" xmlns:xlink="http://www.w3.org/1999/xlink" xml:space="preserve" xmlns:serif="http://www.serif.com/" style="fill-rule:evenodd;clip-rule:evenodd;stroke-linecap:round;stroke-linejoin:round;stroke-miterlimit:1.5;">
    <g transform="matrix(0.68691,0.726742,-0.178409,0.168631,996.333,-1284.02)">
        <path d="M2060.8,426.035L2060.8,1028.84L2034.47,854.906L2087.47,853.953L2060.8,1028.84" style="fill:none;stroke:black;stroke-width:3.72px;"/>
    </g>
    <g transform="matrix(-0.729218,-0.684282,0.167986,-0.179017,3250.67,2247.3)">
        <path d="M2060.8,426.035L2060.8,1028.84L2034.47,854.906L2087.47,853.953L2060.8,1028.84" style="fill:none;stroke:black;stroke-width:3.72px;"/>
    </g>
    <g transform="matrix(0.908388,-0.418128,0.102647,0.223002,-535.804,2295.45)">
        <path d="M2060.8,426.035L2060.8,1028.84L2034.47,854.906L2087.47,853.953L2060.8,1028.84" style="fill:none;stroke:black;stroke-width:3.72px;"/>
    </g>
    <g transform="matrix(-0.788854,0.614581,-0.150875,-0.193657,3041.31,942.873)">
        <path d="M2060.8,426.035L2060.8,1028.84L2034.47,854.906L2087.47,853.953L2060.8,1028.84" style="fill:none;stroke:black;stroke-width:3.72px;"/>
    </g>
    <g>
        <path d="M1090.8,1937.8C1090.8,1937.8 1136.01,2000.49 1222.82,1998.12C1309.4,1995.77 1340.91,1948 1352.15,1936.4" style="fill:none;stroke:black;stroke-width:2.71px;"/>
        <path d="M1352.87,1937.01L1353.27,1957.12L1352.87,1937.01Z" style="fill:none;stroke:black;stroke-width:2.71px;"/>
        <path d="M1328.71,1936.77L1352.87,1937.01" style="fill:none;stroke:black;stroke-width:2.71px;"/>
    </g>
    <g transform="matrix(-0.47855,-0.87806,0.215557,-0.11748,1635.03,3843.23)">
        <path d="M2060.8,426.035L2060.8,1028.84L2034.47,854.906L2087.47,853.953L2060.8,1028.84" style="fill:none;stroke:black;stroke-width:3.72px;"/>
    </g>
    <g transform="matrix(0.901488,0.432805,-0.10625,0.221308,88.8194,530.583)">
        <path d="M2060.8,426.035L2060.8,1028.84L2034.47,854.906L2087.47,853.953L2060.8,1028.84" style="fill:none;stroke:black;stroke-width:3.72px;"/>
    </g>
    <g transform="matrix(1,0,0,1,1122.43,1363.6)">
        <text x="214.126px" y="467.348px" style="font-family:'ArialMT', 'Arial', sans-serif;font-size:150px;">[</text>
        <text x="297.476px" y="467.348px" style="font-family:'Arial-BoldMT', 'Arial', sans-serif;font-weight:700;font-size:150px;">jué</text>
        <text x="514.199px" y="467.348px" style="font-family:'ArialMT', 'Arial', sans-serif;font-size:150px;">,</text>
        <text x="597.549px" y="467.348px" style="font-family:'Arial-BoldMT', 'Arial', sans-serif;font-weight:700;font-size:150px;">què</text>
        <text x="905.898px" y="467.348px" style="font-family:'ArialMT', 'Arial', sans-serif;font-size:150px;">]</text>
    </g>
    <g transform="matrix(1,0,0,1,1750.5,85.7496)">
        <text x="214.126px" y="467.348px" style="font-family:'Arial-BoldMT', 'Arial', sans-serif;font-weight:700;font-size:150px;">jué</text>
    </g>
    <g transform="matrix(1,0,0,1,2138.3,-198.921)">
        <text x="214.126px" y="467.348px" style="font-family:'ArialMT', 'Arial', sans-serif;font-size:150px;">Latin alphabet</text>
    </g>
    <g transform="matrix(1,0,0,1,1459.72,401.622)">
        <text x="214.126px" y="467.348px" style="font-family:'ArialMT', 'Arial', sans-serif;font-size:150px;">pronunciation</text>
    </g>
    <g transform="matrix(1,0,0,1,-143.877,1005.27)">
        <text x="214.126px" y="467.348px" style="font-family:'ArialMT', 'Arial', sans-serif;font-size:150px;">normal pronunciation</text>
    </g>
    <g transform="matrix(1,0,0,1,-150.088,1646.77)">
        <text x="242.831px" y="467.348px" style="font-family:'ArialMT', 'Arial', sans-serif;font-size:150px;">charactor</text>
        <text x="451.279px" y="622.255px" style="font-family:'ArialMT', 'Arial', sans-serif;font-size:150px;">or</text>
        <text x="338.669px" y="777.163px" style="font-family:'ArialMT', 'Arial', sans-serif;font-size:150px;">hanzi</text>
    </g>
    <g transform="matrix(1,0,0,1,743.241,1360.34)">
        <text x="214.126px" y="474.802px" style="font-family:'HiraKakuProN-W3', 'Hiragino Kaku Gothic ProN', sans-serif;font-weight:300;font-size:150px;">傕</text>
        <text x="405.801px" y="474.802px" style="font-family:'ArialMT', 'Arial', sans-serif;font-size:150px;">=</text>
    </g>
    <g transform="matrix(1,0,0,1,1097.94,1763.42)">
        <text x="214.126px" y="467.348px" style="font-family:'ArialMT', 'Arial', sans-serif;font-size:150px;">pinyin</text>
    </g>
    <g transform="matrix(1,0,0,1,1746.96,1851.08)">
        <text x="214.126px" y="410.969px" style="font-family:'ArialMT', 'Arial', sans-serif;font-size:66.667px;">pinyin</text>
        <text x="406.834px" y="410.969px" style="font-family:'HiraKakuProN-W3', 'Hiragino Kaku Gothic ProN', sans-serif;font-weight:300;font-size:66.667px;">は</text>
        <text x="492.023px" y="410.969px" style="font-family:'ArialMT', 'Arial', sans-serif;font-size:66.667px;">pronunciation</text>
        <text x="910.838px" y="410.969px" style="font-family:'HiraKakuProN-W3', 'Hiragino Kaku Gothic ProN', sans-serif;font-weight:300;font-size:66.667px;">とほとんど同じ意味として</text>
        <text x="139.126px" y="510.969px" style="font-family:'HiraKakuProN-W3', 'Hiragino Kaku Gothic ProN', sans-serif;font-weight:300;font-size:66.667px;">使うが漢字との対応としての概念的な使い方をする</text>
    </g>
    <g transform="matrix(1,0,0,1,1562.37,982.601)">
        <text x="214.126px" y="467.348px" style="font-family:'ArialMT', 'Arial', sans-serif;font-size:150px;">variational pronunciation</text>
    </g>
    <g transform="matrix(1.74225e-17,-0.284531,0.382957,2.34494e-17,1774.52,782.458)">
        <path d="M1163.55,1081.63L1328.78,1081.63L1328.78,851.903L1162.59,851.903" style="fill:none;stroke:black;stroke-width:8.03px;"/>
    </g>
    <g transform="matrix(1.74225e-17,0.284531,-1.3973,8.55598e-17,3429,249.39)">
        <path d="M1163.55,1081.63L1328.78,1081.63L1328.78,851.903L1162.59,851.903" style="fill:none;stroke:black;stroke-width:2.69px;"/>
    </g>
    <g transform="matrix(-0.729218,-0.684282,0.167986,-0.179017,1891.58,2173.42)">
        <path d="M2060.8,426.035L2060.8,1028.84L2034.47,854.906L2087.47,853.953L2060.8,1028.84" style="fill:none;stroke:black;stroke-width:3.72px;"/>
    </g>
    <g transform="matrix(1.74225e-17,0.284531,-1.3973,8.55598e-17,2069.91,175.517)">
        <path d="M1163.55,1081.63L1328.78,1081.63L1328.78,851.903L1162.59,851.903" style="fill:none;stroke:black;stroke-width:2.69px;"/>
    </g>
    <g transform="matrix(1.74225e-17,0.284531,-3.47011,2.12483e-16,5052.45,1538.96)">
        <path d="M1163.55,1081.63L1328.78,1081.63L1328.78,851.903L1162.59,851.903" style="fill:none;stroke:black;stroke-width:1.1px;"/>
    </g>
    <g transform="matrix(1.74225e-17,0.284531,-0.724619,4.43701e-17,1736.85,1544.29)">
        <path d="M1163.55,1081.63L1328.78,1081.63L1328.78,851.903L1162.59,851.903" style="fill:none;stroke:black;stroke-width:4.92px;"/>
    </g>
    <g transform="matrix(1.74225e-17,-0.284531,1.11472,6.82567e-17,450.37,2067)">
        <path d="M1163.55,1081.63L1328.78,1081.63L1328.78,851.903L1162.59,851.903" style="fill:none;stroke:black;stroke-width:3.33px;"/>
    </g>
    <g transform="matrix(1.74225e-17,-0.284531,1.11472,6.82567e-17,782.64,2067)">
        <path d="M1163.55,1081.63L1328.78,1081.63L1328.78,851.903L1162.59,851.903" style="fill:none;stroke:black;stroke-width:3.33px;"/>
    </g>
    <g transform="matrix(1,0,0,1,-137.035,446.356)">
        <text x="279.354px" y="376.649px" style="font-family:'ArialMT', 'Arial', sans-serif;font-size:150px;">phrase</text>
    </g>
    <g transform="matrix(1,0,0,1,419.227,386.959)">
        <text x="150px" y="114.9px" style="font-family:'HiraKakuProN-W3', 'Hiragino Kaku Gothic ProN', sans-serif;font-weight:300;font-size:150px;">学校</text>
    </g>
</svg>
