<?xml version="1.0" encoding="utf-8"?>
<!-- Generator: Adobe Illustrator 23.0.4, SVG Export Plug-In . SVG Version: 6.00 Build 0)  -->
<svg version="1.1" id="レイヤー_1" xmlns="http://www.w3.org/2000/svg" xmlns:xlink="http://www.w3.org/1999/xlink" x="0px"
	 y="0px" viewBox="0 0 1000 1000" style="enable-background:new 0 0 1000 1000;" xml:space="preserve">
<style type="text/css">
	.st0{fill:#E61C4E;}
	.st1{fill:none;stroke:#000000;stroke-width:5;stroke-miterlimit:10;}
	.st2{fill:none;}
	.st3{font-family:'ArialMT';}
	.st4{font-size:72px;}
	.st5{font-size:36.0018px;}
</style>
<g transform="scale(0.85,0.75)translate(85,0)">
	<path d="M533.7,837.3v-226h393c15,0,25-5,27-16c-35-31-90-74-90-74l-50,61h-280v-121c97-10,187-21,261-32c24,11,43,11,52,3l-70-71
		c-149,41-428,86-651,104l3,19c110-1,228-8,339-17v115h-414l9,29h405v213c-85,160-259,307-428,391l9,17c159-66,316-174,419-290v335
		h11c33,0,55-17,55-22v-377c80,163,215,283,374,348c9-31,31-51,57-55l2-11c-174-48-349-173-432-324L533.7,837.3z M107.7,967.3
		c8-3,16-10,19-23c70-28,127-52,169-71v90h10c24,0,52-16,52-23v-264c20-4,26-12,28-22l-90-10v88h-210l9,29h201v88
		c-97,21-190,41-236,47L107.7,967.3z M638.7,644.3v251c0,42,11,56,73,56h76c116,0,142-11,142-37c0-11-6-18-25-24l-3-77h-13
		c-7,32-15,66-21,76c-4,6-9,7-17,7c-8,1-32,1-60,1h-66c-25,0-28-3-28-15v-96c68-16,142-38,178-51c12,6,23,6,28,2l-51-62
		c-33,22-98,59-155,87v-84c17-3,27-12,28-23L638.7,644.3z"/>
</g>
<rect x="36.5" y="22.4" class="st0" width="927" height="232.4"/>
<g>
	<g>
		<g>
			<polyline class="st1" points="50.6,94.2 853.1,94.2 50.6,94.2 			"/>
			<g>
				<polygon points="80.2,110.1 81.9,105.4 51.1,94.2 81.9,83 80.2,78.3 36.5,94.2 				"/>
			</g>
			<g>
				<polygon points="80.2,78.3 81.9,83 51.1,94.2 81.9,105.4 80.2,110.1 36.5,94.2 				"/>
			</g>
		</g>
	</g>
	<g>
		<g>
			<polyline class="st1" points="949.4,94.2 663.7,94.2 949.4,94.2 			"/>
			<g>
				<polygon points="919.8,78.3 918.1,83 948.9,94.2 918.1,105.4 919.8,110.1 963.5,94.2 				"/>
			</g>
			<g>
				<polygon points="919.8,110.1 918.1,105.4 948.9,94.2 918.1,83 919.8,78.3 963.5,94.2 				"/>
			</g>
		</g>
	</g>
</g>
<g>
	<g>
		<g>
			<polyline class="st1" points="14.7,-52 880.4,-52 14.7,-52 			"/>
			<g>
				<polygon points="44.2,-36 45.9,-40.8 15.2,-52 45.9,-63.2 44.2,-67.9 0.6,-52 				"/>
			</g>
			<g>
				<polygon points="44.2,-67.9 45.9,-63.2 15.2,-52 45.9,-40.8 44.2,-36.1 0.6,-52 				"/>
			</g>
		</g>
	</g>
	<g>
		<g>
			<polyline class="st1" points="985.3,-52 676.3,-52 985.3,-52 			"/>
			<g>
				<polygon points="955.7,-67.9 954,-63.2 984.8,-52 954,-40.8 955.7,-36.1 999.4,-52 				"/>
			</g>
			<g>
				<polygon points="955.7,-36 954,-40.8 984.8,-52 954,-63.2 955.7,-67.9 999.4,-52 				"/>
			</g>
		</g>
	</g>
</g>
<g>
	<g>
		<g>
			<polyline class="st1" points="840,38.9 840.1,227.4 840,38.9 			"/>
			<g>
				<polygon points="824.2,68.5 828.9,70.2 840,39.4 851.3,70.2 856,68.5 840,24.8 				"/>
			</g>
			<g>
				<polygon points="856,68.5 851.3,70.2 840,39.4 828.9,70.2 824.2,68.5 840,24.8 				"/>
			</g>
		</g>
	</g>
	<g>
		<g>
			<polyline class="st1" points="840.1,240.7 840.1,180.4 840.1,240.7 			"/>
			<g>
				<polygon points="856,211.1 851.3,209.4 840.1,240.2 828.9,209.4 824.2,211.1 840.1,254.8 				"/>
			</g>
			<g>
				<polygon points="824.2,211.1 828.9,209.4 840.1,240.2 851.3,209.4 856,211.1 840.1,254.8 				"/>
			</g>
		</g>
	</g>
</g>
<g>
	<g>
		<g>
			<polyline class="st1" points="-46.6,14.7 -46.6,880.4 -46.6,14.7 			"/>
			<g>
				<polygon points="-62.5,44.3 -57.8,46 -46.6,15.2 -35.4,46 -30.7,44.3 -46.6,0.6 				"/>
			</g>
			<g>
				<polygon points="-30.7,44.3 -35.4,46 -46.6,15.2 -57.8,46 -62.5,44.3 -46.6,0.6 				"/>
			</g>
		</g>
	</g>
	<g>
		<g>
			<polyline class="st1" points="-46.6,985.3 -46.6,676.4 -46.6,985.3 			"/>
			<g>
				<polygon points="-30.7,955.7 -35.4,954 -46.6,984.8 -57.8,954 -62.5,955.7 -46.6,999.4 				"/>
			</g>
			<g>
				<polygon points="-62.5,955.7 -57.8,954 -46.6,984.8 -35.4,954 -30.7,955.7 -46.6,999.4 				"/>
			</g>
		</g>
	</g>
</g>
<g>
	<g>
		<g>
			<polyline class="st1" points="59.2,265.3 59.2,911.2 59.2,265.3 			"/>
			<g>
				<polygon points="43.3,287.4 48,288.7 59.2,265.7 70.4,288.7 75.1,287.4 59.2,254.8 				"/>
			</g>
			<g>
				<polygon points="75.1,287.4 70.4,288.7 59.2,265.7 48,288.7 43.3,287.4 59.2,254.8 				"/>
			</g>
		</g>
	</g>
	<g>
		<g>
			<polyline class="st1" points="59.2,989.5 59.2,759 59.2,989.5 			"/>
			<g>
				<polygon points="75.1,967.4 70.4,966.1 59.2,989.1 48,966.1 43.3,967.4 59.2,1000 				"/>
			</g>
			<g>
				<polygon points="43.3,967.4 48,966.1 59.2,989.1 70.4,966.1 75.1,967.4 59.2,1000 				"/>
			</g>
		</g>
	</g>
</g>
<rect x="270.6" y="-124.9" class="st2" width="522.6" height="72.9"/>
<text transform="matrix(1 0 0 1 270.5672 -61.5066)" class="st3 st4">AI_CAV_W_mm</text>
<rect x="204.1" y="22.4" class="st2" width="591.7" height="72.9"/>
<text transform="matrix(1 0 0 1 204.1336 85.7605)" class="st3 st4">PY_SPC_W_mm</text>
<text transform="matrix(1.615285e-02 0.9331 -0.9999 1.730794e-02 872.3229 19.9862)" class="st3 st5">PY_SPC_H_mm</text>
<text transform="matrix(6.123234e-17 1 -1 6.123234e-17 71.2158 416.7925)" class="st3 st4">- PY_BSE_H_mm</text>
</svg>
