<svg xmlns="http://www.w3.org/2000/svg" viewBox="0 -860 574 1000">
    <path d="M397 205V325Q397 375 360.0 412.5Q323 450 272 450Q147 450 147 270Q147 174 180.5 127.0Q214 80 272 80Q323 80 360.0 117.5Q397 155 397 205ZM42 270Q42 394 95.0 462.0Q148 530 242 530Q291 530 326.5 513.5Q362 497 400 455H402L404 520H502V35Q502 -101 441.0 -165.5Q380 -230 252 -230Q174 -230 102 -210V-120Q173 -150 252 -150Q328 -150 362.5 -107.5Q397 -65 397 30V65H395Q330 0 242.0 0.0Q154 0 98.0 71.0Q42 142 42 270Z" transform="scale(1, -1)"/>
</svg>
