<svg xmlns="http://www.w3.org/2000/svg" viewBox="0 -860 544 1000">
    <g transform="scale(1, -1)">
        <path d="M257 530Q383 530 430.0 485.0Q477 440 477 320V0H379L377 75H375Q317 -10 202 -10Q134 -10 90.5 34.0Q47 78 47 150Q47 238 114.0 286.5Q181 335 317 335H372V355Q372 408 347.0 429.0Q322 450 257 450Q179 450 77 412V500Q170 530 257 530ZM297 760H437L287 590H187L297 760ZM372 262H317Q235 262 193.5 234.5Q152 207 152 160Q152 123 174.0 99.0Q196 75 227 75Q293 75 332.5 116.5Q372 158 372 230V262Z"/>
    </g>
</svg>
