<svg xmlns="http://www.w3.org/2000/svg" viewBox="0 -860 500 1000">
    <path d="M75 495Q112 509 164.5 519.5Q217 530 252 530Q358 530 399.0 487.5Q440 445 440 332V0H340L338 70H336Q289 -10 195 -10Q129 -10 89.5 31.5Q50 73 50 148Q50 237 112.5 286.0Q175 335 298 335H334V352Q334 401 315.5 420.5Q297 440 250 440Q217 440 164.5 428.5Q112 417 75 402V495ZM240 765H390L235 590H135L240 765ZM334 260H298Q225 260 188.5 232.5Q152 205 152 155Q152 117 171.0 96.5Q190 76 222 76Q274 76 304.0 115.0Q334 154 334 232V260Z" transform="scale(1, -1)"/>
</svg>
