<svg xmlns="http://www.w3.org/2000/svg" viewBox="0 -860 500 1000">
    <path d="M226 734Q166 734 86 711V786Q171 805 265 805Q338 805 378.5 782.0Q419 759 419 726Q419 678 350 640Q319 623 306.0 610.5Q293 598 291 580H166Q166 606 185.5 625.0Q205 644 244 665Q295 692 295 712Q295 734 226 734ZM161.0 117.5Q180 78 222.0 78.0Q264 78 283.0 117.5Q302 157 302.0 260.0Q302 363 283.0 402.5Q264 442 222.0 442.0Q180 442 161.0 402.5Q142 363 142.0 260.0Q142 157 161.0 117.5ZM222 -10Q35 -10 35.0 260.0Q35 530 222 530Q357 530 395 392Q399 385 404 385Q415 385 415 445Q415 490 405 560H480Q490 509 490 442Q490 367 470.0 327.5Q450 288 420 288Q412 288 409 289Q409 285 409.5 275.0Q410 265 410 260Q410 -10 222 -10Z" transform="scale(1, -1)"/>
</svg>
