<svg xmlns="http://www.w3.org/2000/svg" viewBox="0 -860 689 1000">
    <g transform="scale(1, -1)">
        <path d="M500 728Q500 702 485.0 683.5Q470 665 431 644Q398 627 386.0 613.0Q374 599 372 580H267Q267 604 282.0 622.5Q297 641 338 664Q384 689 384 710Q384 730 307 730Q247 730 175 710V783Q251 800 335 800Q415 800 457.5 779.5Q500 759 500 728ZM144.0 260.0Q144 70 282.0 70.0Q420 70 420.0 260.0Q420 450 282.0 450.0Q144 450 144.0 260.0ZM282 530Q448 530 504 391Q526 376 550 376Q600 376 600 456Q600 512 579 560H670Q687 513 687 452Q687 380 656.5 342.5Q626 305 572 305Q548 305 524 314Q527 288 527 260Q527 131 462.0 60.5Q397 -10 282.0 -10.0Q167 -10 102.0 60.5Q37 131 37.0 260.0Q37 389 102.0 459.5Q167 530 282 530Z"/>
    </g>
</svg>
